<svg xmlns="http://www.w3.org/2000/svg" width="20" height="20" viewBox="0 0 20 20" fill="none">
  <path
    d="M7.93174 2.53099C7.56598 2.87622 7.31965 3.30223 7.14051 3.76498C7.00615 4.0294 6.96882 4.32321 6.94643 4.61701C6.9315 5.18993 7.06586 5.73348 7.35698 6.23294C7.67795 6.79117 8.01385 7.34206 8.33482 7.90029L13.5674 16.7512C14.2392 17.897 15.4559 18.4846 16.7547 18.2937C18.8746 17.9778 20.0316 15.6494 18.9642 13.8058C17.6952 11.6022 16.3964 9.40604 15.1125 7.20985C14.3437 5.88772 13.5525 4.58029 12.806 3.24347C11.8133 1.48064 9.39477 1.12807 7.93174 2.53099Z"
    fill="#1876F2"
  />
  <path
    d="M6.49104 6.73388C6.28351 6.37722 6.13606 6.00232 6.04709 5.61499C4.91159 7.54721 3.77945 9.48273 2.6473 11.4182L2.63086 11.4462C3.0242 11.3189 3.44389 11.25 3.87966 11.25C5.89006 11.25 7.55834 12.7149 7.87539 14.6354L8.25595 13.9881L8.25644 13.9872C8.42454 13.7012 8.5925 13.4153 8.76046 13.13C9.01353 12.7055 9.26429 12.2832 9.51402 11.8606L7.46742 8.39884L6.49104 6.73388Z"
    fill="#FAAF37"
  />
  <circle cx="3.88008" cy="15.3" r="3.05" fill="#13BD49" />
</svg>
